<?xml version="1.0" standalone="no"?>
<!DOCTYPE svg PUBLIC "-//W3C//DTD SVG 20010904//EN"
 "http://www.w3.org/TR/2001/REC-SVG-20010904/DTD/svg10.dtd">
<svg version="1.0" xmlns="http://www.w3.org/2000/svg"
 width="1432.000000pt" height="1432.000000pt" viewBox="0 0 1432.000000 1432.000000"
 preserveAspectRatio="xMidYMid meet">
<metadata>
Created by potrace 1.14, written by Peter Selinger 2001-2017
</metadata>
<g transform="translate(0.000000,1432.000000) scale(0.100000,-0.100000)"
fill="#000000" stroke="none">
<path d="M6315 11834 c-71 -12 -198 -50 -305 -93 -159 -65 -291 -144 -441
-264 -20 -16 -56 -33 -80 -38 -24 -5 -91 -33 -149 -61 -87 -42 -117 -63 -175
-122 -154 -156 -192 -334 -120 -562 6 -18 0 -21 -59 -33 -120 -24 -287 -119
-370 -211 -61 -68 -115 -159 -138 -235 -29 -93 -30 -231 -4 -334 14 -55 16
-76 7 -79 -33 -11 -117 -91 -151 -144 -76 -116 -110 -250 -110 -426 0 -152 32
-265 101 -363 18 -26 18 -26 -18 -79 -107 -159 -150 -380 -108 -545 42 -162
200 -349 377 -445 l51 -28 1 -143 c2 -166 15 -228 77 -358 31 -63 60 -103 122
-168 131 -136 281 -226 466 -279 76 -22 109 -38 175 -85 228 -165 520 -258
771 -246 130 7 208 28 351 98 189 93 361 247 475 423 l59 90 0 173 0 173 612
0 613 0 276 -276 276 -276 -14 -51 c-47 -175 97 -357 282 -357 78 0 144 27
200 83 81 81 107 198 69 309 -47 138 -214 220 -354 173 l-52 -17 -297 296
-297 296 -657 0 -657 0 0 215 0 215 848 0 847 0 24 -45 c28 -52 73 -95 134
-127 64 -34 184 -32 252 4 105 55 160 146 159 263 0 87 -32 154 -99 213 -139
122 -343 86 -444 -78 l-31 -50 -842 2 -843 3 -3 538 -2 537 618 0 617 0 139
-139 140 -140 -12 -39 c-48 -158 40 -323 195 -368 136 -40 276 24 344 156 18
35 23 61 23 120 0 123 -51 207 -156 259 -51 26 -72 31 -132 31 -39 -1 -84 -7
-101 -14 l-30 -14 -171 169 -170 169 -652 0 -652 0 0 230 0 230 719 0 719 0
22 -45 c78 -161 310 -201 451 -77 87 76 117 220 70 329 -28 64 -100 133 -164
158 -58 22 -174 17 -227 -9 -48 -25 -108 -83 -131 -128 l-19 -38 -720 0 -720
0 0 300 0 300 480 0 c398 0 486 2 508 14 15 8 125 113 245 234 l219 219 41
-14 c64 -23 162 -13 227 23 167 91 200 323 65 456 -179 176 -475 67 -492 -181
-3 -43 0 -81 10 -108 l14 -41 -206 -206 -206 -206 -453 0 -452 0 0 316 c0 196
-4 323 -10 334 -15 28 -119 96 -217 142 -132 62 -253 89 -413 93 -74 2 -148 1
-165 -1z m334 -204 c50 -12 128 -41 182 -68 l94 -47 3 -2181 2 -2182 -42 -63
c-95 -142 -262 -279 -430 -351 -115 -49 -161 -59 -283 -59 -192 1 -423 86
-624 232 -72 51 -98 64 -175 84 -164 41 -291 112 -407 226 -72 71 -118 152
-144 254 -19 74 -22 222 -5 297 20 88 7 108 -101 164 -170 88 -286 198 -329
312 -25 66 -27 195 -4 273 18 60 58 145 81 171 15 17 17 16 42 -1 135 -96 410
-181 583 -181 62 0 72 3 93 26 35 37 34 92 -1 128 -15 14 -32 26 -38 26 -6 0
-50 5 -96 10 -286 35 -530 170 -607 335 -24 53 -28 74 -31 181 -7 204 43 345
146 413 23 16 58 32 77 35 39 8 75 47 75 84 0 13 -14 65 -31 115 -29 83 -31
99 -27 196 3 91 7 114 31 163 54 110 204 222 352 262 33 9 85 23 115 32 151
42 358 24 506 -45 99 -47 153 -94 215 -189 55 -84 86 -170 98 -273 11 -93 17
-106 52 -124 44 -23 77 -18 111 16 31 30 31 31 25 113 -7 101 -52 247 -104
336 -48 81 -190 227 -263 268 -132 74 -332 117 -483 103 l-69 -7 -15 36 c-47
111 -37 221 28 319 49 73 111 121 211 161 162 64 315 56 483 -28 67 -33 161
-101 209 -151 64 -66 123 -74 170 -23 22 26 24 84 2 117 -23 35 -148 136 -226
183 -55 33 -176 86 -245 107 -16 5 -3 16 65 56 92 54 192 95 322 133 111 33
280 35 407 6z m2122 -69 c52 -53 34 -137 -36 -167 -100 -42 -184 89 -106 167
23 23 38 29 71 29 33 0 48 -6 71 -29z m104 -1405 c70 -30 83 -120 24 -170 -74
-63 -183 1 -165 96 7 38 27 61 66 77 34 13 36 13 75 -3z m59 -1150 c109 -45
75 -196 -44 -196 -37 0 -87 42 -95 80 -10 46 22 102 65 117 19 7 36 12 38 12
1 1 18 -5 36 -13z m201 -760 c33 -14 65 -59 65 -91 0 -31 -31 -82 -56 -94 -72
-32 -154 15 -154 89 0 36 30 81 63 95 40 18 41 18 82 1z m79 -1377 c25 -12 56
-63 56 -93 0 -8 -5 -26 -12 -40 -38 -85 -169 -73 -192 17 -22 87 63 154 148
116z"/>
<path d="M5507 9570 c-34 -27 -43 -70 -22 -114 37 -79 180 -208 291 -264 l41
-21 -18 -54 c-84 -248 -30 -578 142 -879 57 -99 78 -118 129 -118 79 1 114 76
69 150 -73 119 -138 275 -171 410 -20 84 -17 291 6 367 l19 63 102 -7 c143 -8
260 10 297 48 36 36 38 86 4 122 -31 33 -64 41 -112 28 -58 -16 -217 -13 -288
5 -134 35 -210 87 -368 255 -32 35 -83 39 -121 9z"/>
<path d="M5144 7780 c-32 -13 -54 -50 -54 -91 0 -32 7 -44 52 -84 166 -149
445 -239 664 -214 141 16 286 77 370 155 45 42 47 92 5 135 -41 41 -74 38
-154 -15 -164 -108 -346 -123 -546 -45 -65 25 -121 57 -260 151 -28 20 -45 21
-77 8z"/>
<path d="M7050 5889 c-58 -10 -135 -23 -172 -30 l-68 -11 0 -808 c0 -517 4
-837 11 -887 21 -156 94 -254 232 -311 79 -33 204 -55 282 -50 l49 3 22 138
c12 76 25 149 28 162 5 21 2 24 -45 34 -77 17 -116 39 -141 80 l-23 36 -3 833
-2 832 -33 -1 c-17 -1 -79 -9 -137 -20z"/>
<path d="M9425 5885 c-77 -13 -155 -27 -172 -30 l-33 -6 0 -837 c0 -889 2
-918 48 -1008 64 -123 214 -198 422 -211 l96 -6 28 163 c30 176 30 180 -24
180 -36 0 -110 40 -132 70 -10 14 -22 49 -28 79 -6 33 -10 354 -10 842 l0 789
-27 -1 c-16 0 -91 -11 -168 -24z"/>
<path d="M1483 5716 c-302 -58 -517 -218 -645 -481 -60 -123 -84 -213 -100
-368 -14 -139 -1 -322 33 -459 26 -106 105 -267 166 -339 174 -204 391 -289
737 -289 173 0 304 17 426 56 93 29 203 81 197 92 -3 4 -28 75 -57 157 -29 83
-56 154 -61 159 -4 5 -40 -5 -81 -22 -115 -48 -222 -66 -383 -66 -157 1 -225
16 -314 73 -127 82 -193 202 -220 404 -46 335 80 608 319 692 152 54 401 32
589 -51 29 -13 55 -24 56 -24 3 0 25 58 79 213 l46 128 -85 40 c-134 63 -268
90 -465 95 -112 2 -188 -1 -237 -10z"/>
<path d="M7692 4753 l3 -938 210 0 210 0 3 388 2 387 370 0 370 0 0 175 0 175
-370 0 -370 0 0 195 0 195 413 2 412 3 3 178 2 177 -630 0 -630 0 2 -937z"/>
<path d="M3065 5269 c-301 -47 -514 -252 -577 -558 -26 -123 -20 -307 12 -421
74 -262 257 -444 497 -495 101 -22 273 -19 367 5 186 47 337 170 419 341 64
132 82 222 81 394 -1 156 -15 234 -64 341 -110 242 -317 381 -595 398 -44 3
-107 1 -140 -5z m224 -369 c87 -44 144 -147 162 -294 27 -215 -58 -425 -188
-464 -52 -15 -134 -15 -187 0 -58 17 -128 90 -154 161 -53 140 -48 353 10 472
37 73 100 127 173 146 46 12 141 2 184 -21z"/>
<path d="M5695 5270 c-92 -10 -243 -35 -297 -50 -27 -8 -38 -16 -38 -30 0 -22
39 -278 45 -296 2 -8 22 -6 69 6 96 27 247 43 342 37 152 -9 230 -73 241 -196
l6 -62 -59 8 c-100 13 -322 8 -402 -10 -160 -35 -293 -129 -342 -240 -31 -70
-43 -173 -30 -264 21 -152 92 -254 224 -318 110 -53 200 -68 416 -67 180 1
291 12 489 48 l91 17 0 467 c0 526 -4 574 -65 697 -80 162 -240 244 -500 256
-61 3 -146 2 -190 -3z m351 -857 c11 -4 14 -35 14 -154 l0 -148 -35 -7 c-20
-3 -91 -4 -158 -2 -138 5 -194 25 -222 78 -20 39 -19 125 2 160 21 37 77 67
144 79 52 10 226 5 255 -6z"/>
<path d="M10610 5270 c-157 -20 -283 -82 -396 -195 -67 -66 -89 -96 -127 -175
-65 -134 -80 -206 -80 -375 0 -111 5 -156 22 -219 59 -219 182 -374 369 -465
98 -48 144 -56 317 -56 140 1 168 4 225 24 144 50 276 154 349 276 19 31 50
102 69 158 32 93 36 114 40 243 5 161 -10 256 -57 371 -96 232 -291 381 -543
413 -90 11 -106 11 -188 0z m207 -367 c82 -38 132 -115 158 -241 48 -222 -23
-450 -160 -513 -64 -30 -169 -26 -235 9 -61 31 -111 96 -136 175 -21 68 -30
256 -15 328 27 131 97 224 191 254 55 18 147 12 197 -12z"/>
<path d="M4585 5259 c-80 -9 -355 -73 -387 -90 -17 -9 -18 -52 -18 -684 l0
-675 200 0 200 0 0 544 c0 509 1 544 18 551 9 4 67 9 127 12 88 4 130 1 209
-16 55 -12 100 -20 102 -19 3 4 64 310 64 324 0 23 -251 65 -375 63 -33 -1
-96 -6 -140 -10z"/>
<path d="M11550 5234 c0 -3 27 -99 61 -213 128 -432 261 -836 357 -1081 l49
-125 157 -3 c154 -2 156 -2 166 20 14 32 139 442 191 626 23 84 46 149 49 145
4 -5 19 -55 35 -113 16 -58 70 -233 120 -390 l91 -285 157 -3 157 -3 21 48
c51 117 147 388 235 656 90 276 214 691 214 716 0 8 -58 11 -207 9 l-207 -3
-77 -325 c-86 -369 -141 -580 -150 -580 -8 0 -12 13 -133 495 l-104 410 -144
3 -145 3 -66 -263 c-88 -349 -168 -641 -177 -651 -8 -9 -111 399 -181 717 -22
99 -42 183 -45 188 -6 9 -424 11 -424 2z"/>
</g>
</svg>
