<svg xmlns="http://www.w3.org/2000/svg" xmlns:xlink="http://www.w3.org/1999/xlink" width="179" zoomAndPan="magnify" viewBox="0 0 134.25 88.499997" height="118" preserveAspectRatio="xMidYMid meet" version="1.0"><defs><g/><clipPath id="970344db89"><path d="M 39 0 L 89 0 L 89 50.714844 L 39 50.714844 Z M 39 0 " clip-rule="nonzero"/></clipPath></defs><path fill="#000000" d="M 59.117188 24.148438 C 58.539062 24.300781 57.957031 24.359375 57.359375 24.332031 C 56.765625 24.300781 56.191406 24.183594 55.632812 23.976562 C 55.074219 23.769531 54.5625 23.484375 54.09375 23.117188 C 53.625 22.75 53.222656 22.320312 52.882812 21.832031 C 52.753906 21.640625 52.578125 21.519531 52.351562 21.472656 C 52.125 21.425781 51.914062 21.460938 51.714844 21.582031 C 51.519531 21.703125 51.390625 21.875 51.332031 22.097656 C 51.273438 22.320312 51.300781 22.535156 51.410156 22.734375 C 52.203125 23.925781 53.25 24.804688 54.554688 25.382812 C 52.730469 29.945312 56.039062 34.730469 56.191406 34.933594 C 56.332031 35.121094 56.515625 35.234375 56.75 35.273438 C 56.980469 35.308594 57.191406 35.261719 57.382812 35.125 C 57.574219 34.988281 57.691406 34.808594 57.734375 34.578125 C 57.777344 34.347656 57.734375 34.132812 57.605469 33.9375 C 57.574219 33.894531 54.648438 29.632812 56.21875 25.90625 C 56.6875 26 57.160156 26.050781 57.636719 26.050781 C 58.265625 26.050781 58.890625 25.980469 59.503906 25.839844 C 59.738281 25.785156 59.917969 25.65625 60.042969 25.453125 C 60.171875 25.253906 60.207031 25.035156 60.15625 24.800781 C 60.101562 24.570312 59.976562 24.390625 59.773438 24.261719 C 59.570312 24.132812 59.355469 24.097656 59.121094 24.148438 Z M 59.117188 24.148438 " fill-opacity="1" fill-rule="nonzero"/><path fill="#000000" d="M 56.824219 39.300781 C 53.144531 42.113281 49.289062 38.757812 49.125 38.609375 C 48.945312 38.453125 48.738281 38.378906 48.503906 38.394531 C 48.265625 38.410156 48.066406 38.503906 47.910156 38.679688 C 47.75 38.859375 47.675781 39.066406 47.691406 39.300781 C 47.703125 39.539062 47.796875 39.738281 47.972656 39.898438 C 48.757812 40.589844 49.640625 41.128906 50.621094 41.511719 C 51.597656 41.898438 52.609375 42.105469 53.660156 42.136719 C 55.234375 42.136719 56.636719 41.648438 57.875 40.671875 C 58.074219 40.53125 58.1875 40.339844 58.226562 40.097656 C 58.261719 39.855469 58.203125 39.640625 58.058594 39.445312 C 57.910156 39.253906 57.714844 39.140625 57.472656 39.113281 C 57.230469 39.082031 57.015625 39.144531 56.824219 39.296875 Z M 56.824219 39.300781 " fill-opacity="1" fill-rule="nonzero"/><g clip-path="url(#970344db89)"><path fill="#000000" d="M 85.914062 45.101562 C 85.453125 45.105469 85.027344 45.222656 84.628906 45.445312 L 79.261719 40.082031 C 79.09375 39.910156 78.890625 39.828125 78.648438 39.828125 L 66.75 39.828125 L 66.75 35.828125 L 82.695312 35.828125 C 82.765625 36.03125 82.855469 36.222656 82.96875 36.40625 C 83.082031 36.585938 83.214844 36.753906 83.367188 36.902344 C 83.519531 37.050781 83.6875 37.183594 83.871094 37.292969 C 84.054688 37.402344 84.246094 37.492188 84.453125 37.554688 C 84.65625 37.621094 84.863281 37.660156 85.078125 37.675781 C 85.292969 37.691406 85.503906 37.683594 85.714844 37.648438 C 85.925781 37.613281 86.128906 37.554688 86.328125 37.472656 C 86.523438 37.390625 86.710938 37.285156 86.882812 37.160156 C 87.054688 37.03125 87.210938 36.886719 87.347656 36.726562 C 87.488281 36.5625 87.605469 36.386719 87.703125 36.195312 C 87.800781 36.003906 87.871094 35.804688 87.921875 35.597656 C 87.972656 35.386719 87.996094 35.175781 87.996094 34.960938 C 87.996094 34.75 87.972656 34.539062 87.921875 34.328125 C 87.871094 34.121094 87.800781 33.921875 87.703125 33.730469 C 87.605469 33.539062 87.488281 33.363281 87.347656 33.199219 C 87.210938 33.039062 87.054688 32.894531 86.882812 32.765625 C 86.710938 32.640625 86.523438 32.535156 86.328125 32.453125 C 86.128906 32.371094 85.925781 32.3125 85.714844 32.277344 C 85.503906 32.242188 85.292969 32.234375 85.078125 32.25 C 84.863281 32.265625 84.65625 32.304688 84.453125 32.371094 C 84.246094 32.433594 84.054688 32.523438 83.871094 32.632812 C 83.6875 32.742188 83.519531 32.875 83.367188 33.023438 C 83.214844 33.171875 83.082031 33.339844 82.96875 33.519531 C 82.855469 33.703125 82.765625 33.894531 82.695312 34.097656 L 66.75 34.097656 L 66.75 23.972656 L 78.289062 23.972656 L 80.96875 26.648438 C 80.785156 27.019531 80.691406 27.414062 80.6875 27.828125 C 80.691406 28.1875 80.761719 28.535156 80.898438 28.867188 C 81.039062 29.199219 81.234375 29.492188 81.492188 29.75 C 81.746094 30.003906 82.042969 30.199219 82.375 30.335938 C 82.710938 30.472656 83.058594 30.539062 83.417969 30.539062 C 83.777344 30.539062 84.125 30.46875 84.457031 30.328125 C 84.789062 30.191406 85.082031 29.992188 85.339844 29.738281 C 85.59375 29.480469 85.789062 29.1875 85.925781 28.855469 C 86.0625 28.519531 86.132812 28.175781 86.128906 27.8125 C 86.128906 27.453125 86.058594 27.105469 85.921875 26.773438 C 85.785156 26.441406 85.585938 26.144531 85.332031 25.890625 C 85.078125 25.636719 84.78125 25.441406 84.449219 25.304688 C 84.117188 25.164062 83.769531 25.097656 83.40625 25.097656 C 82.972656 25.097656 82.566406 25.203125 82.179688 25.402344 L 79.261719 22.480469 C 79.089844 22.3125 78.886719 22.230469 78.648438 22.230469 L 66.75 22.230469 L 66.75 17.902344 L 80.25 17.902344 C 80.320312 18.105469 80.410156 18.296875 80.523438 18.476562 C 80.636719 18.660156 80.769531 18.824219 80.921875 18.976562 C 81.074219 19.125 81.242188 19.253906 81.425781 19.367188 C 81.609375 19.476562 81.800781 19.5625 82.003906 19.628906 C 82.210938 19.691406 82.417969 19.734375 82.628906 19.75 C 82.84375 19.765625 83.054688 19.753906 83.265625 19.71875 C 83.476562 19.6875 83.683594 19.628906 83.878906 19.542969 C 84.078125 19.460938 84.261719 19.359375 84.433594 19.230469 C 84.605469 19.105469 84.761719 18.960938 84.902344 18.796875 C 85.039062 18.632812 85.15625 18.457031 85.253906 18.265625 C 85.351562 18.078125 85.421875 17.878906 85.472656 17.667969 C 85.523438 17.460938 85.546875 17.25 85.546875 17.035156 C 85.546875 16.824219 85.523438 16.613281 85.472656 16.402344 C 85.421875 16.195312 85.351562 15.996094 85.253906 15.804688 C 85.15625 15.617188 85.039062 15.4375 84.902344 15.277344 C 84.761719 15.113281 84.605469 14.96875 84.433594 14.84375 C 84.261719 14.714844 84.078125 14.609375 83.878906 14.527344 C 83.683594 14.445312 83.476562 14.386719 83.265625 14.351562 C 83.054688 14.320312 82.84375 14.308594 82.628906 14.324219 C 82.417969 14.339844 82.210938 14.378906 82.003906 14.445312 C 81.800781 14.511719 81.609375 14.597656 81.425781 14.707031 C 81.242188 14.816406 81.074219 14.949219 80.921875 15.097656 C 80.769531 15.25 80.636719 15.414062 80.523438 15.59375 C 80.410156 15.777344 80.320312 15.96875 80.25 16.171875 L 66.75 16.171875 L 66.75 10.484375 L 75.589844 10.484375 C 75.828125 10.484375 76.03125 10.398438 76.199219 10.230469 L 80.34375 6.085938 C 80.722656 6.28125 81.125 6.382812 81.554688 6.386719 C 81.914062 6.386719 82.261719 6.316406 82.597656 6.179688 C 82.929688 6.039062 83.222656 5.84375 83.480469 5.589844 C 83.734375 5.335938 83.929688 5.039062 84.070312 4.707031 C 84.207031 4.375 84.277344 4.027344 84.277344 3.664062 C 84.277344 3.304688 84.207031 2.957031 84.070312 2.625 C 83.933594 2.289062 83.734375 1.996094 83.480469 1.742188 C 83.226562 1.484375 82.929688 1.289062 82.597656 1.152344 C 82.265625 1.011719 81.917969 0.945312 81.554688 0.941406 C 81.195312 0.941406 80.847656 1.011719 80.515625 1.148438 C 80.183594 1.289062 79.886719 1.484375 79.632812 1.738281 C 79.378906 1.996094 79.179688 2.289062 79.042969 2.621094 C 78.902344 2.957031 78.835938 3.304688 78.835938 3.664062 C 78.835938 4.085938 78.933594 4.484375 79.125 4.859375 L 75.230469 8.753906 L 66.75 8.753906 L 66.75 3.042969 C 66.75 2.761719 66.640625 2.535156 66.421875 2.363281 C 65.34375 1.554688 64.148438 0.992188 62.839844 0.667969 C 61.53125 0.34375 60.210938 0.289062 58.878906 0.5 C 56.253906 1.101562 53.921875 2.289062 51.890625 4.054688 C 51.195312 4.183594 50.535156 4.421875 49.917969 4.761719 C 49.21875 5.089844 48.625 5.550781 48.128906 6.136719 C 47.632812 6.726562 47.285156 7.394531 47.078125 8.136719 C 46.851562 9.21875 46.953125 10.265625 47.390625 11.285156 C 47.253906 11.316406 47.128906 11.335938 46.988281 11.375 C 45.945312 11.578125 45 12 44.152344 12.640625 C 43.304688 13.285156 42.644531 14.082031 42.167969 15.03125 C 41.621094 16.492188 41.621094 17.953125 42.167969 19.414062 C 41.027344 19.996094 39.398438 21.507812 39.574219 25.390625 C 39.613281 26.546875 39.988281 27.582031 40.707031 28.488281 C 40.054688 29.277344 39.609375 30.171875 39.367188 31.164062 C 39.128906 32.160156 39.117188 33.15625 39.335938 34.15625 C 39.691406 35.136719 40.226562 36.003906 40.9375 36.765625 C 41.648438 37.527344 42.480469 38.117188 43.433594 38.535156 C 43.253906 39.496094 43.261719 40.453125 43.457031 41.410156 C 43.652344 42.367188 44.023438 43.25 44.566406 44.0625 C 45.304688 44.996094 46.183594 45.769531 47.203125 46.382812 C 48.222656 46.996094 49.320312 47.410156 50.492188 47.621094 C 51.539062 48.503906 52.699219 49.195312 53.972656 49.695312 C 55.246094 50.195312 56.566406 50.476562 57.933594 50.542969 C 58.550781 50.542969 59.164062 50.476562 59.765625 50.34375 C 61.238281 49.933594 62.570312 49.25 63.765625 48.300781 C 64.960938 47.351562 65.925781 46.207031 66.65625 44.867188 C 66.722656 44.742188 66.753906 44.605469 66.753906 44.464844 L 66.753906 41.539062 L 78.296875 41.539062 L 83.441406 46.699219 C 83.359375 46.875 83.300781 47.058594 83.261719 47.25 C 83.21875 47.441406 83.199219 47.632812 83.199219 47.828125 C 83.199219 48.019531 83.222656 48.214844 83.265625 48.402344 C 83.304688 48.59375 83.367188 48.777344 83.449219 48.953125 C 83.53125 49.128906 83.628906 49.296875 83.746094 49.449219 C 83.863281 49.605469 83.996094 49.746094 84.144531 49.875 C 84.292969 50 84.449219 50.109375 84.621094 50.203125 C 84.792969 50.296875 84.972656 50.371094 85.160156 50.425781 C 85.34375 50.476562 85.535156 50.511719 85.730469 50.523438 C 85.925781 50.539062 86.117188 50.53125 86.308594 50.503906 C 86.503906 50.476562 86.691406 50.425781 86.871094 50.359375 C 87.054688 50.289062 87.226562 50.203125 87.390625 50.097656 C 87.554688 49.992188 87.703125 49.871094 87.839844 49.730469 C 87.976562 49.59375 88.097656 49.441406 88.203125 49.277344 C 88.308594 49.113281 88.394531 48.941406 88.460938 48.757812 C 88.53125 48.578125 88.578125 48.390625 88.605469 48.195312 C 88.632812 48.003906 88.636719 47.8125 88.625 47.617188 C 88.609375 47.421875 88.574219 47.234375 88.519531 47.046875 C 88.464844 46.859375 88.390625 46.679688 88.296875 46.511719 C 88.203125 46.339844 88.09375 46.179688 87.964844 46.035156 C 87.835938 45.886719 87.695312 45.757812 87.539062 45.640625 C 87.382812 45.523438 87.21875 45.425781 87.039062 45.34375 C 86.863281 45.261719 86.679688 45.203125 86.488281 45.160156 C 86.300781 45.121094 86.105469 45.101562 85.914062 45.101562 Z M 85.261719 33.964844 C 85.394531 33.964844 85.519531 33.992188 85.640625 34.042969 C 85.761719 34.089844 85.871094 34.164062 85.964844 34.257812 C 86.054688 34.347656 86.128906 34.457031 86.179688 34.578125 C 86.226562 34.699219 86.253906 34.824219 86.253906 34.957031 C 86.253906 35.085938 86.226562 35.214844 86.179688 35.335938 C 86.128906 35.457031 86.054688 35.5625 85.964844 35.65625 C 85.871094 35.75 85.761719 35.820312 85.640625 35.871094 C 85.519531 35.921875 85.394531 35.945312 85.261719 35.945312 C 85.132812 35.945312 85.007812 35.921875 84.882812 35.871094 C 84.761719 35.820312 84.65625 35.75 84.5625 35.65625 C 84.46875 35.5625 84.398438 35.457031 84.347656 35.335938 C 84.296875 35.214844 84.273438 35.085938 84.273438 34.957031 C 84.273438 34.824219 84.296875 34.699219 84.347656 34.578125 C 84.398438 34.457031 84.46875 34.347656 84.5625 34.257812 C 84.65625 34.164062 84.761719 34.089844 84.882812 34.042969 C 85.007812 33.992188 85.132812 33.964844 85.261719 33.964844 Z M 84.398438 27.820312 C 84.398438 27.953125 84.375 28.078125 84.324219 28.199219 C 84.273438 28.320312 84.203125 28.429688 84.109375 28.523438 C 84.015625 28.613281 83.910156 28.6875 83.789062 28.738281 C 83.667969 28.789062 83.539062 28.8125 83.410156 28.8125 C 83.277344 28.8125 83.152344 28.789062 83.03125 28.738281 C 82.910156 28.6875 82.800781 28.617188 82.707031 28.523438 C 82.617188 28.429688 82.542969 28.324219 82.492188 28.203125 C 82.441406 28.082031 82.417969 27.957031 82.417969 27.824219 C 82.417969 27.691406 82.441406 27.566406 82.492188 27.445312 C 82.542969 27.324219 82.613281 27.214844 82.707031 27.125 C 82.800781 27.03125 82.90625 26.957031 83.027344 26.910156 C 83.148438 26.859375 83.277344 26.832031 83.40625 26.832031 C 83.539062 26.832031 83.664062 26.859375 83.785156 26.910156 C 83.90625 26.957031 84.015625 27.03125 84.109375 27.121094 C 84.199219 27.214844 84.273438 27.320312 84.320312 27.441406 C 84.371094 27.5625 84.398438 27.691406 84.398438 27.820312 Z M 82.820312 16.050781 C 82.953125 16.050781 83.078125 16.078125 83.199219 16.128906 C 83.320312 16.175781 83.425781 16.25 83.519531 16.339844 C 83.613281 16.433594 83.683594 16.539062 83.734375 16.660156 C 83.785156 16.78125 83.808594 16.910156 83.808594 17.039062 C 83.808594 17.171875 83.785156 17.296875 83.734375 17.417969 C 83.683594 17.539062 83.613281 17.644531 83.519531 17.738281 C 83.425781 17.832031 83.320312 17.902344 83.199219 17.953125 C 83.078125 18.003906 82.953125 18.027344 82.820312 18.027344 C 82.691406 18.027344 82.5625 18.003906 82.441406 17.953125 C 82.320312 17.902344 82.214844 17.832031 82.121094 17.738281 C 82.03125 17.644531 81.957031 17.539062 81.90625 17.417969 C 81.859375 17.296875 81.832031 17.171875 81.832031 17.039062 C 81.832031 16.910156 81.855469 16.78125 81.90625 16.660156 C 81.957031 16.539062 82.027344 16.433594 82.121094 16.339844 C 82.214844 16.246094 82.320312 16.175781 82.441406 16.125 C 82.5625 16.074219 82.691406 16.046875 82.820312 16.046875 Z M 81.554688 2.675781 C 81.6875 2.675781 81.8125 2.699219 81.933594 2.75 C 82.054688 2.800781 82.164062 2.871094 82.253906 2.964844 C 82.347656 3.058594 82.421875 3.164062 82.46875 3.285156 C 82.519531 3.40625 82.546875 3.535156 82.546875 3.664062 C 82.546875 3.796875 82.519531 3.921875 82.472656 4.042969 C 82.421875 4.164062 82.347656 4.273438 82.257812 4.367188 C 82.164062 4.457031 82.054688 4.53125 81.933594 4.582031 C 81.8125 4.632812 81.6875 4.65625 81.554688 4.65625 C 81.425781 4.65625 81.296875 4.628906 81.175781 4.582031 C 81.054688 4.53125 80.949219 4.457031 80.855469 4.363281 C 80.761719 4.273438 80.691406 4.164062 80.640625 4.042969 C 80.589844 3.921875 80.566406 3.796875 80.566406 3.664062 C 80.566406 3.390625 80.664062 3.160156 80.855469 2.964844 C 81.046875 2.773438 81.28125 2.675781 81.554688 2.675781 Z M 65.019531 44.238281 C 64.40625 45.3125 63.613281 46.230469 62.640625 46.992188 C 61.667969 47.757812 60.585938 48.3125 59.398438 48.652344 C 56.949219 49.1875 54.253906 48.339844 51.390625 46.125 C 51.269531 46.03125 51.132812 45.972656 50.984375 45.949219 C 50.003906 45.785156 49.082031 45.453125 48.222656 44.957031 C 47.363281 44.460938 46.617188 43.828125 45.980469 43.0625 C 45.523438 42.339844 45.226562 41.558594 45.101562 40.710938 C 44.976562 39.863281 45.023438 39.027344 45.253906 38.203125 C 45.296875 37.992188 45.269531 37.792969 45.164062 37.605469 C 45.0625 37.417969 44.910156 37.289062 44.710938 37.214844 C 44.679688 37.199219 41.65625 36.039062 41.003906 33.683594 C 40.871094 32.984375 40.894531 32.285156 41.066406 31.59375 C 41.238281 30.898438 41.546875 30.273438 41.996094 29.714844 C 43.796875 30.910156 45.78125 31.542969 47.941406 31.617188 L 47.976562 31.617188 C 48.214844 31.625 48.421875 31.542969 48.59375 31.375 C 48.765625 31.210938 48.851562 31.007812 48.855469 30.769531 C 48.859375 30.53125 48.78125 30.324219 48.613281 30.152344 C 48.449219 29.980469 48.246094 29.890625 48.007812 29.886719 C 46.046875 29.789062 44.269531 29.171875 42.664062 28.039062 C 42.613281 27.898438 42.53125 27.777344 42.414062 27.679688 C 42.347656 27.632812 42.277344 27.597656 42.203125 27.570312 C 41.632812 26.925781 41.332031 26.167969 41.300781 25.308594 C 41.113281 21.125 43.316406 20.789062 43.394531 20.777344 C 43.539062 20.761719 43.671875 20.714844 43.792969 20.636719 C 43.914062 20.554688 44.007812 20.453125 44.078125 20.324219 C 44.144531 20.195312 44.179688 20.058594 44.179688 19.914062 C 44.179688 19.769531 44.144531 19.632812 44.078125 19.503906 C 43.773438 18.914062 43.597656 18.292969 43.542969 17.632812 C 43.492188 16.972656 43.566406 16.328125 43.769531 15.695312 C 44.148438 14.996094 44.664062 14.414062 45.308594 13.949219 C 45.957031 13.480469 46.671875 13.179688 47.457031 13.039062 C 48.496094 12.628906 49.574219 12.472656 50.691406 12.566406 C 51.804688 12.664062 52.839844 13 53.796875 13.582031 C 54.476562 14.117188 55.011719 14.769531 55.398438 15.542969 C 55.789062 16.316406 55.996094 17.132812 56.019531 17.996094 C 56.023438 18.238281 56.113281 18.441406 56.289062 18.605469 C 56.464844 18.769531 56.675781 18.84375 56.914062 18.832031 C 57.15625 18.824219 57.355469 18.730469 57.519531 18.554688 C 57.679688 18.378906 57.757812 18.171875 57.75 17.933594 C 57.722656 16.800781 57.449219 15.730469 56.933594 14.722656 C 56.417969 13.714844 55.707031 12.867188 54.804688 12.183594 C 53.972656 11.621094 53.0625 11.234375 52.078125 11.019531 C 51.097656 10.808594 50.109375 10.785156 49.117188 10.953125 C 48.710938 10.183594 48.589844 9.371094 48.75 8.519531 C 48.90625 8.019531 49.15625 7.574219 49.507812 7.183594 C 49.855469 6.792969 50.265625 6.492188 50.746094 6.28125 C 54.480469 4.226562 57.828125 7.847656 57.96875 8.011719 C 58.128906 8.191406 58.328125 8.285156 58.570312 8.296875 C 58.808594 8.308594 59.015625 8.234375 59.191406 8.074219 C 59.371094 7.914062 59.464844 7.714844 59.480469 7.476562 C 59.492188 7.238281 59.417969 7.03125 59.257812 6.851562 C 58 5.496094 56.472656 4.59375 54.679688 4.136719 C 56.066406 3.203125 57.578125 2.554688 59.210938 2.199219 C 60.226562 2.042969 61.234375 2.078125 62.234375 2.300781 C 63.238281 2.523438 64.164062 2.917969 65.019531 3.484375 Z M 85.914062 48.808594 C 85.78125 48.808594 85.65625 48.785156 85.535156 48.734375 C 85.410156 48.683594 85.304688 48.613281 85.210938 48.519531 C 85.117188 48.425781 85.046875 48.320312 84.996094 48.199219 C 84.945312 48.078125 84.921875 47.953125 84.921875 47.820312 C 84.921875 47.6875 84.945312 47.5625 84.996094 47.441406 C 85.046875 47.320312 85.117188 47.210938 85.210938 47.121094 C 85.304688 47.027344 85.410156 46.953125 85.53125 46.90625 C 85.652344 46.855469 85.78125 46.828125 85.910156 46.828125 C 86.042969 46.828125 86.167969 46.855469 86.289062 46.90625 C 86.410156 46.957031 86.519531 47.027344 86.613281 47.121094 C 86.703125 47.214844 86.777344 47.320312 86.824219 47.441406 C 86.875 47.5625 86.902344 47.691406 86.902344 47.820312 C 86.898438 48.09375 86.804688 48.328125 86.609375 48.519531 C 86.417969 48.710938 86.183594 48.808594 85.914062 48.808594 Z M 85.914062 48.808594 " fill-opacity="1" fill-rule="nonzero"/></g><g fill="#000000" fill-opacity="1"><g transform="translate(5.602622, 75.607253)"><g><path d="M 10.03125 0.359375 C 7.175781 0.359375 5 -0.429688 3.5 -2.015625 C 2.007812 -3.609375 1.265625 -5.867188 1.265625 -8.796875 C 1.265625 -10.242188 1.492188 -11.535156 1.953125 -12.671875 C 2.410156 -13.816406 3.035156 -14.78125 3.828125 -15.5625 C 4.617188 -16.351562 5.5625 -16.953125 6.65625 -17.359375 C 7.757812 -17.765625 8.953125 -17.96875 10.234375 -17.96875 C 10.984375 -17.96875 11.660156 -17.910156 12.265625 -17.796875 C 12.867188 -17.691406 13.398438 -17.566406 13.859375 -17.421875 C 14.316406 -17.273438 14.695312 -17.125 15 -16.96875 C 15.300781 -16.820312 15.519531 -16.707031 15.65625 -16.625 L 14.515625 -13.4375 C 13.972656 -13.71875 13.34375 -13.957031 12.625 -14.15625 C 11.914062 -14.363281 11.101562 -14.46875 10.1875 -14.46875 C 9.582031 -14.46875 8.988281 -14.363281 8.40625 -14.15625 C 7.820312 -13.957031 7.304688 -13.632812 6.859375 -13.1875 C 6.410156 -12.738281 6.050781 -12.160156 5.78125 -11.453125 C 5.507812 -10.742188 5.375 -9.882812 5.375 -8.875 C 5.375 -8.0625 5.460938 -7.300781 5.640625 -6.59375 C 5.816406 -5.894531 6.101562 -5.289062 6.5 -4.78125 C 6.894531 -4.28125 7.410156 -3.878906 8.046875 -3.578125 C 8.691406 -3.285156 9.472656 -3.140625 10.390625 -3.140625 C 10.960938 -3.140625 11.476562 -3.171875 11.9375 -3.234375 C 12.394531 -3.304688 12.800781 -3.390625 13.15625 -3.484375 C 13.507812 -3.578125 13.820312 -3.679688 14.09375 -3.796875 C 14.363281 -3.921875 14.609375 -4.03125 14.828125 -4.125 L 15.921875 -0.96875 C 15.359375 -0.625 14.566406 -0.316406 13.546875 -0.046875 C 12.535156 0.222656 11.363281 0.359375 10.03125 0.359375 Z M 10.03125 0.359375 "/></g></g></g><g fill="#000000" fill-opacity="1"><g transform="translate(22.018653, 75.607253)"><g><path d="M 14.25 -6.6875 C 14.25 -5.644531 14.09375 -4.6875 13.78125 -3.8125 C 13.476562 -2.945312 13.039062 -2.203125 12.46875 -1.578125 C 11.894531 -0.960938 11.207031 -0.484375 10.40625 -0.140625 C 9.601562 0.191406 8.703125 0.359375 7.703125 0.359375 C 6.722656 0.359375 5.832031 0.191406 5.03125 -0.140625 C 4.226562 -0.484375 3.539062 -0.960938 2.96875 -1.578125 C 2.394531 -2.203125 1.945312 -2.945312 1.625 -3.8125 C 1.300781 -4.6875 1.140625 -5.644531 1.140625 -6.6875 C 1.140625 -7.738281 1.300781 -8.691406 1.625 -9.546875 C 1.957031 -10.410156 2.414062 -11.144531 3 -11.75 C 3.582031 -12.363281 4.273438 -12.835938 5.078125 -13.171875 C 5.878906 -13.515625 6.753906 -13.6875 7.703125 -13.6875 C 8.671875 -13.6875 9.554688 -13.515625 10.359375 -13.171875 C 11.160156 -12.835938 11.847656 -12.363281 12.421875 -11.75 C 12.992188 -11.144531 13.441406 -10.410156 13.765625 -9.546875 C 14.085938 -8.691406 14.25 -7.738281 14.25 -6.6875 Z M 10.390625 -6.6875 C 10.390625 -7.851562 10.15625 -8.769531 9.6875 -9.4375 C 9.226562 -10.101562 8.566406 -10.4375 7.703125 -10.4375 C 6.835938 -10.4375 6.171875 -10.101562 5.703125 -9.4375 C 5.234375 -8.769531 5 -7.851562 5 -6.6875 C 5 -5.519531 5.234375 -4.59375 5.703125 -3.90625 C 6.171875 -3.226562 6.835938 -2.890625 7.703125 -2.890625 C 8.566406 -2.890625 9.226562 -3.226562 9.6875 -3.90625 C 10.15625 -4.59375 10.390625 -5.519531 10.390625 -6.6875 Z M 10.390625 -6.6875 "/></g></g></g><g fill="#000000" fill-opacity="1"><g transform="translate(37.396016, 75.607253)"><g><path d="M 9.8125 -9.984375 C 9.46875 -10.066406 9.066406 -10.15625 8.609375 -10.25 C 8.160156 -10.34375 7.671875 -10.390625 7.140625 -10.390625 C 6.910156 -10.390625 6.628906 -10.367188 6.296875 -10.328125 C 5.960938 -10.285156 5.710938 -10.238281 5.546875 -10.1875 L 5.546875 0 L 1.78125 0 L 1.78125 -12.625 C 2.445312 -12.851562 3.238281 -13.070312 4.15625 -13.28125 C 5.082031 -13.5 6.113281 -13.609375 7.25 -13.609375 C 7.445312 -13.609375 7.691406 -13.59375 7.984375 -13.5625 C 8.273438 -13.539062 8.5625 -13.507812 8.84375 -13.46875 C 9.132812 -13.425781 9.421875 -13.375 9.703125 -13.3125 C 9.992188 -13.257812 10.238281 -13.191406 10.4375 -13.109375 Z M 9.8125 -9.984375 "/></g></g></g><g fill="#000000" fill-opacity="1"><g transform="translate(48.086712, 75.607253)"><g><path d="M 6.875 -2.640625 C 7.238281 -2.640625 7.585938 -2.644531 7.921875 -2.65625 C 8.265625 -2.675781 8.539062 -2.703125 8.75 -2.734375 L 8.75 -5.59375 C 8.59375 -5.632812 8.363281 -5.671875 8.0625 -5.703125 C 7.757812 -5.734375 7.476562 -5.75 7.21875 -5.75 C 6.863281 -5.75 6.53125 -5.726562 6.21875 -5.6875 C 5.90625 -5.644531 5.628906 -5.5625 5.390625 -5.4375 C 5.160156 -5.320312 4.976562 -5.160156 4.84375 -4.953125 C 4.707031 -4.753906 4.640625 -4.503906 4.640625 -4.203125 C 4.640625 -3.609375 4.835938 -3.195312 5.234375 -2.96875 C 5.628906 -2.75 6.175781 -2.640625 6.875 -2.640625 Z M 6.5625 -13.6875 C 7.675781 -13.6875 8.601562 -13.554688 9.34375 -13.296875 C 10.09375 -13.046875 10.691406 -12.679688 11.140625 -12.203125 C 11.585938 -11.734375 11.90625 -11.160156 12.09375 -10.484375 C 12.28125 -9.816406 12.375 -9.066406 12.375 -8.234375 L 12.375 -0.375 C 11.832031 -0.257812 11.078125 -0.125 10.109375 0.03125 C 9.148438 0.195312 7.984375 0.28125 6.609375 0.28125 C 5.753906 0.28125 4.972656 0.203125 4.265625 0.046875 C 3.566406 -0.0976562 2.960938 -0.34375 2.453125 -0.6875 C 1.953125 -1.039062 1.566406 -1.492188 1.296875 -2.046875 C 1.023438 -2.609375 0.890625 -3.296875 0.890625 -4.109375 C 0.890625 -4.878906 1.046875 -5.535156 1.359375 -6.078125 C 1.671875 -6.617188 2.085938 -7.050781 2.609375 -7.375 C 3.128906 -7.695312 3.726562 -7.925781 4.40625 -8.0625 C 5.082031 -8.207031 5.785156 -8.28125 6.515625 -8.28125 C 7.003906 -8.28125 7.4375 -8.257812 7.8125 -8.21875 C 8.195312 -8.175781 8.507812 -8.125 8.75 -8.0625 L 8.75 -8.421875 C 8.75 -9.054688 8.550781 -9.566406 8.15625 -9.953125 C 7.769531 -10.347656 7.097656 -10.546875 6.140625 -10.546875 C 5.492188 -10.546875 4.859375 -10.5 4.234375 -10.40625 C 3.609375 -10.3125 3.066406 -10.179688 2.609375 -10.015625 L 2.125 -13.046875 C 2.34375 -13.117188 2.617188 -13.191406 2.953125 -13.265625 C 3.285156 -13.335938 3.644531 -13.40625 4.03125 -13.46875 C 4.414062 -13.53125 4.820312 -13.582031 5.25 -13.625 C 5.6875 -13.664062 6.125 -13.6875 6.5625 -13.6875 Z M 6.5625 -13.6875 "/></g></g></g><g fill="#000000" fill-opacity="1"><g transform="translate(62.096075, 75.607253)"><g><path d="M 7.09375 0.25 C 6 0.238281 5.109375 0.125 4.421875 -0.09375 C 3.734375 -0.320312 3.191406 -0.632812 2.796875 -1.03125 C 2.398438 -1.425781 2.128906 -1.90625 1.984375 -2.46875 C 1.847656 -3.03125 1.78125 -3.671875 1.78125 -4.390625 L 1.78125 -19.0625 L 5.546875 -19.671875 L 5.546875 -5.140625 C 5.546875 -4.804688 5.570312 -4.503906 5.625 -4.234375 C 5.675781 -3.960938 5.773438 -3.734375 5.921875 -3.546875 C 6.066406 -3.359375 6.269531 -3.207031 6.53125 -3.09375 C 6.800781 -2.976562 7.164062 -2.898438 7.625 -2.859375 Z M 7.09375 0.25 "/></g></g></g><g fill="#000000" fill-opacity="1"><g transform="translate(70.101422, 75.607253)"><g><path d="M 2.03125 0 L 2.03125 -17.5625 L 13.78125 -17.5625 L 13.78125 -14.25 L 5.984375 -14.25 L 5.984375 -10.5625 L 12.921875 -10.5625 L 12.921875 -7.25 L 5.984375 -7.25 L 5.984375 0 Z M 2.03125 0 "/></g></g></g><g fill="#000000" fill-opacity="1"><g transform="translate(84.642791, 75.607253)"><g><path d="M 7.09375 0.25 C 6 0.238281 5.109375 0.125 4.421875 -0.09375 C 3.734375 -0.320312 3.191406 -0.632812 2.796875 -1.03125 C 2.398438 -1.425781 2.128906 -1.90625 1.984375 -2.46875 C 1.847656 -3.03125 1.78125 -3.671875 1.78125 -4.390625 L 1.78125 -19.0625 L 5.546875 -19.671875 L 5.546875 -5.140625 C 5.546875 -4.804688 5.570312 -4.503906 5.625 -4.234375 C 5.675781 -3.960938 5.773438 -3.734375 5.921875 -3.546875 C 6.066406 -3.359375 6.269531 -3.207031 6.53125 -3.09375 C 6.800781 -2.976562 7.164062 -2.898438 7.625 -2.859375 Z M 7.09375 0.25 "/></g></g></g><g fill="#000000" fill-opacity="1"><g transform="translate(92.648138, 75.607253)"><g><path d="M 14.25 -6.6875 C 14.25 -5.644531 14.09375 -4.6875 13.78125 -3.8125 C 13.476562 -2.945312 13.039062 -2.203125 12.46875 -1.578125 C 11.894531 -0.960938 11.207031 -0.484375 10.40625 -0.140625 C 9.601562 0.191406 8.703125 0.359375 7.703125 0.359375 C 6.722656 0.359375 5.832031 0.191406 5.03125 -0.140625 C 4.226562 -0.484375 3.539062 -0.960938 2.96875 -1.578125 C 2.394531 -2.203125 1.945312 -2.945312 1.625 -3.8125 C 1.300781 -4.6875 1.140625 -5.644531 1.140625 -6.6875 C 1.140625 -7.738281 1.300781 -8.691406 1.625 -9.546875 C 1.957031 -10.410156 2.414062 -11.144531 3 -11.75 C 3.582031 -12.363281 4.273438 -12.835938 5.078125 -13.171875 C 5.878906 -13.515625 6.753906 -13.6875 7.703125 -13.6875 C 8.671875 -13.6875 9.554688 -13.515625 10.359375 -13.171875 C 11.160156 -12.835938 11.847656 -12.363281 12.421875 -11.75 C 12.992188 -11.144531 13.441406 -10.410156 13.765625 -9.546875 C 14.085938 -8.691406 14.25 -7.738281 14.25 -6.6875 Z M 10.390625 -6.6875 C 10.390625 -7.851562 10.15625 -8.769531 9.6875 -9.4375 C 9.226562 -10.101562 8.566406 -10.4375 7.703125 -10.4375 C 6.835938 -10.4375 6.171875 -10.101562 5.703125 -9.4375 C 5.234375 -8.769531 5 -7.851562 5 -6.6875 C 5 -5.519531 5.234375 -4.59375 5.703125 -3.90625 C 6.171875 -3.226562 6.835938 -2.890625 7.703125 -2.890625 C 8.566406 -2.890625 9.226562 -3.226562 9.6875 -3.90625 C 10.15625 -4.59375 10.390625 -5.519531 10.390625 -6.6875 Z M 10.390625 -6.6875 "/></g></g></g><g fill="#000000" fill-opacity="1"><g transform="translate(108.025501, 75.607253)"><g><path d="M 9.890625 -7.65625 C 9.546875 -6.375 9.179688 -5.097656 8.796875 -3.828125 C 8.421875 -2.554688 8.023438 -1.28125 7.609375 0 L 4.65625 0 C 4.351562 -0.707031 4.023438 -1.550781 3.671875 -2.53125 C 3.316406 -3.507812 2.945312 -4.578125 2.5625 -5.734375 C 2.1875 -6.890625 1.800781 -8.113281 1.40625 -9.40625 C 1.007812 -10.707031 0.625 -12.015625 0.25 -13.328125 L 4.234375 -13.328125 C 4.367188 -12.722656 4.515625 -12.0625 4.671875 -11.34375 C 4.835938 -10.625 5.007812 -9.882812 5.1875 -9.125 C 5.363281 -8.363281 5.546875 -7.597656 5.734375 -6.828125 C 5.929688 -6.054688 6.128906 -5.316406 6.328125 -4.609375 C 6.554688 -5.359375 6.773438 -6.117188 6.984375 -6.890625 C 7.191406 -7.671875 7.390625 -8.4375 7.578125 -9.1875 C 7.773438 -9.9375 7.960938 -10.660156 8.140625 -11.359375 C 8.328125 -12.066406 8.484375 -12.722656 8.609375 -13.328125 L 11.359375 -13.328125 C 11.492188 -12.722656 11.644531 -12.066406 11.8125 -11.359375 C 11.976562 -10.660156 12.15625 -9.9375 12.34375 -9.1875 C 12.53125 -8.4375 12.722656 -7.671875 12.921875 -6.890625 C 13.128906 -6.117188 13.34375 -5.359375 13.5625 -4.609375 C 13.757812 -5.316406 13.957031 -6.054688 14.15625 -6.828125 C 14.363281 -7.597656 14.554688 -8.363281 14.734375 -9.125 C 14.910156 -9.882812 15.078125 -10.625 15.234375 -11.34375 C 15.398438 -12.0625 15.550781 -12.722656 15.6875 -13.328125 L 19.609375 -13.328125 C 19.242188 -12.015625 18.863281 -10.707031 18.46875 -9.40625 C 18.070312 -8.113281 17.679688 -6.890625 17.296875 -5.734375 C 16.921875 -4.578125 16.550781 -3.507812 16.1875 -2.53125 C 15.820312 -1.550781 15.488281 -0.707031 15.1875 0 L 12.234375 0 C 11.816406 -1.28125 11.40625 -2.554688 11 -3.828125 C 10.59375 -5.097656 10.222656 -6.375 9.890625 -7.65625 Z M 9.890625 -7.65625 "/></g></g></g></svg>